<?xml version="1.0" encoding="UTF-8" standalone="no"?>
<svg
   version="1.0"
   width="232.26909"
   height="300.9184"
   viewBox="0 0 232.26909 300.9184"
   preserveAspectRatio="xMidYMid"
   id="svg17"
   xmlns="http://www.w3.org/2000/svg"
   xmlns:svg="http://www.w3.org/2000/svg">
  <defs
     id="defs17" />
  <g
     fill="#ffffff"
     id="g2"
     transform="translate(-89.040656,-133)">
    <path
       d="m 187.75,392.4 c -5.05,-0.35 -7.05,-0.7 -9,-1.6 -3.25,-1.45 -6.05,-3.95 -7.3,-6.4 -2.3,-4.55 -4.1,-20.8 -4.1,-37.4 0,-12.9 0.55,-19.35 2,-22.4 1.3,-2.8 5.25,-6.4 8.3,-7.5 4.25,-1.6 17.9,-2.6 35.45,-2.6 23.6,0.05 27.65,0.7 32.15,5.2 4.15,4.1 4.35,5.1 4.6,21.9 0.3,14.85 -0.1,21.8 -1.8,33.55 -0.75,5.2 -1.2,6.85 -2.4,8.75 -1.85,3.05 -5.6,5.8 -9.1,6.8 -6.7,1.85 -33.25,2.8 -48.8,1.7 z"
       id="path1" />
    <path
       d="m 194,300.45 c -23.2,-2.2 -35.55,-12.9 -39.3,-33.95 -1.8,-10.2 -1.8,-33.15 -0.05,-40.75 2.05,-8.65 4.85,-14.15 9.85,-19.25 6.45,-6.6 13.85,-9.95 25.85,-11.75 6.9,-1 28,-1.05 34.65,0 8.25,1.25 14.75,3.9 20.35,8.35 5.2,4.1 8.65,9.3 11.1,16.75 2.8,8.3 3.25,12.3 3.3,28.9 0,13.85 -0.1,15.4 -1.15,19.9 -3.8,16.55 -12.35,25.4 -28.55,29.65 -8.2,2.15 -25.4,3.15 -36.05,2.15 z"
       id="path2" />
  </g>
  <g
     fill="#f18e6f"
     id="g4"
     transform="translate(-89.040656,-133)">
    <path
       d="m 195.3,360.25 c -4.7,-1.65 -6.7,-7.35 -4.2,-11.85 1.65,-2.9 4,-4.15 7.75,-4.1 2.55,0 3.35,0.25 4.9,1.45 5.35,4.05 3.75,12.5 -2.7,14.7 -2.15,0.7 -3.35,0.65 -5.75,-0.2 z"
       id="path3" />
    <path
       d="m 191.5,342.75 c -0.9,-1.1 -2.2,-15.95 -1.5,-17.25 0.55,-1 5.45,-1.75 8.25,-1.2 3.05,0.55 3.05,0.6 1.9,13.6 -0.15,2.05 -0.55,3.75 -0.85,3.85 -0.3,0.05 -1.65,0.4 -3.05,0.75 -1.35,0.35 -2.85,0.7 -3.3,0.85 -0.4,0.1 -1.1,-0.15 -1.45,-0.6 z"
       id="path4" />
  </g>
  <g
     fill="#76b736"
     id="g5"
     transform="translate(-89.040656,-133)">
    <path
       d="m 169,432.2 c -7.85,-0.9 -16.55,-1.9 -19.3,-2.2 -8.65,-0.9 -12.4,-2.5 -14.6,-6.25 -1,-1.7 -1.1,-2.55 -0.95,-5.75 0.45,-9.75 7.45,-16.65 17.55,-17.35 4.2,-0.3 4.2,-0.3 4.8,-4.55 0.35,-2.35 0.5,-5.75 0.35,-7.55 -0.2,-1.8 -0.55,-5.9 -0.85,-9.05 -0.35,-3.25 -0.5,-12.35 -0.4,-20.95 0.15,-15.2 0.15,-15.2 -4.85,-16.9 C 148,340.7 140.7,338.2 134.5,336 c -6.2,-2.15 -17.05,-5.95 -24.15,-8.45 -7.8,-2.7 -13.65,-5.05 -14.7,-5.85 -2.35,-1.8 -4.5,-5.25 -5.75,-9.4 -0.85,-2.8 -1,-4.25 -0.75,-8.25 0.3,-5.75 1.6,-9.55 4.45,-12.8 2.75,-3.15 5.25,-3.95 11.05,-3.6 4.4,0.25 5.6,0.6 26.1,8 11.85,4.25 23.4,8.45 25.7,9.3 2.35,0.85 4.3,1.45 4.4,1.4 0.05,-0.1 -1,-1 -2.35,-2.05 -7.2,-5.5 -13.25,-14.15 -16.55,-23.65 -3.55,-10.1 -4.65,-18.75 -4.65,-35.9 0,-13.25 0.5,-18.65 2.5,-25.5 0.85,-2.95 0.65,-3.25 -3.1,-4.45 -3.85,-1.25 -6.85,-3.35 -13.45,-9.5 -3.3,-3.05 -6.25,-5.75 -6.55,-6.05 -6.75,-6 -17.45,-16.35 -18.4,-17.7 -5,-7.2 -5.6,-16.45 -1.7,-24.3 1.9,-3.75 6.75,-8.5 10.55,-10.4 7.05,-3.5 15.25,-3.55 22.1,-0.1 3.45,1.7 4.65,2.6 9.5,7.2 1.4,1.3 7.25,6.7 13,12 10.8,9.9 13.15,12.4 14.8,15.7 0.55,1.05 1.35,2.05 1.75,2.2 0.4,0.15 1.9,-0.2 3.35,-0.75 3.9,-1.55 9.1,-2.95 13.5,-3.65 3.2,-0.5 3.9,-0.75 3.7,-1.4 -2.1,-6.75 -2.25,-7.5 -1.6,-8.4 0.65,-0.85 1.05,-0.55 5.05,3.7 4.25,4.6 4.35,4.65 6.65,4.65 2.35,0 2.35,0 3.75,-5.85 2.35,-10.1 2.25,-9.75 3.45,-9.55 0.95,0.15 1.25,0.9 2.65,7.2 0.85,3.9 1.7,7.3 1.9,7.65 0.2,0.3 1.3,0.55 2.45,0.55 2,0 2.4,-0.25 6.35,-4.25 5.65,-5.7 6.8,-5.65 5,0.05 -0.55,1.8 -1,3.6 -1,3.95 0,0.4 1.05,0.75 2.9,0.95 1.55,0.2 5,0.9 7.6,1.6 7.85,2.15 7.5,2.15 9.5,-1 2.3,-3.6 30.25,-32.25 33.5,-34.3 9.3,-5.95 22.15,-4.7 30,2.95 7.25,7.15 9,17.25 4.6,27.2 -1.15,2.65 -3.95,5.7 -21.9,23.85 -8.55,8.7 -11.85,11.65 -14.3,13.05 -3.75,2.05 -3.7,1.85 -1.75,10.2 0.7,3.05 1.55,7.85 1.85,10.7 0.65,6.6 0.65,26.05 0,31.55 -1.4,11.35 -4.85,21.2 -10.25,28.75 -2.6,3.7 -10.35,11.2 -13.15,12.8 -3.85,2.2 -4.65,1.85 21.4,9.35 7.55,2.2 18.95,5.5 25.25,7.35 13.05,3.75 17.55,5.8 20.1,9.2 2.95,3.8 3.2,7.15 1,13.05 -3.15,8.6 -12.6,16 -20.35,16 -0.95,0 -3.55,-0.55 -5.75,-1.2 -9.45,-2.85 -29.6,-8.9 -30.75,-9.25 -1.25,-0.4 -1.25,-0.4 -1.15,19.9 0.05,15.05 0.25,21 0.75,23.05 0.65,2.75 0.65,2.75 5.15,2.8 7.95,0.1 13.95,3.65 16.75,9.95 4.5,9.95 0.75,16.5 -10.55,18.7 -1.5,0.25 -11,2.2 -21.2,4.3 -10.15,2.05 -19.4,3.75 -20.5,3.75 -2.45,0 -4.95,-1.45 -6,-3.45 -0.55,-1.15 -5.75,-24.4 -5.75,-25.85 0,-0.25 -21.05,0.3 -21.35,0.5 -0.05,0 -0.55,3.55 -1.15,7.8 -0.6,4.25 -1.4,9.95 -1.75,12.7 -0.8,5.35 -1.45,6.85 -3.9,8.3 -2.25,1.4 -6.1,1.25 -23.35,-0.8 z m 53.25,-42.95 c 13.85,-1.1 15.4,-1.5 18.65,-4.45 2.1,-1.85 3.1,-4.65 4.1,-11.2 1.4,-9.35 2,-17.95 2,-28.65 0,-18.35 -1.1,-22.2 -7.1,-25.25 -2.1,-1.05 -3.5,-1.3 -11.5,-1.75 -16.55,-1 -45.3,0.25 -49.95,2.2 -2.4,1 -5.15,3.5 -6.15,5.55 -2.45,5.15 -2.7,25.35 -0.55,44.3 1.3,11.05 1.85,13.05 4.6,15.55 2.9,2.75 4.95,3.25 16.65,4.1 6.25,0.45 20.8,0.25 29.25,-0.4 z m 2,-92.95 C 247.4,292.35 257,278.95 257,250.9 c 0,-7.9 -0.85,-19.4 -1.8,-24.15 -3.15,-15.9 -13.25,-25.85 -29.25,-28.75 -8.4,-1.55 -27.9,-1.4 -37.5,0.25 -14.85,2.55 -24.85,10.2 -29,22.1 -2.1,6 -2.5,9.2 -2.8,20.7 -0.6,24.8 2.3,36.8 11,45.6 5.95,5.95 12.7,8.9 24.6,10.55 3.7,0.5 27.7,-0.15 32,-0.9 z"
       id="path5" />
  </g>
  <g
     fill="#ce372d"
     id="g9"
     transform="translate(-89.040656,-133)">
    <path
       d="m 218.9,380.35 c -1.9,-1.45 -14.95,-16.2 -15.2,-17.2 -0.25,-0.85 0.25,-1.65 2.2,-3.65 1.35,-1.35 2.85,-2.5 3.35,-2.5 0.5,0 2.65,1.6 4.7,3.6 11.85,11.25 13.55,13.05 13.55,13.95 0,1.45 -5.6,6.4 -7.25,6.4 -0.25,0 -0.85,-0.25 -1.35,-0.6 z"
       id="path6" />
    <path
       d="m 190.95,379.45 c -0.85,-0.85 -1,-1.45 -0.8,-2.9 0.2,-1 0.45,-4.45 0.65,-7.65 0.2,-3.75 0.6,-6.1 0.95,-6.4 0.7,-0.55 6.65,-0.15 7.75,0.5 0.55,0.35 0.65,0.95 1.45,9.75 0.55,5.95 0.15,7 -2.8,7.4 -4.3,0.6 -6.1,0.4 -7.2,-0.7 z"
       id="path7" />
    <path
       d="m 194.65,359.75 c -1.6,-0.7 -1.6,-0.7 0.35,-3.85 2.15,-3.45 4.8,-8 5.7,-9.75 0.8,-1.6 1.65,-1.45 3.8,0.75 1.45,1.45 2,2.45 2.25,4.25 0.95,6.35 -5.95,11.3 -12.1,8.6 z"
       id="path8" />
    <path
       d="m 205.8,345.2 c -1.55,-1.5 -2.8,-2.95 -2.8,-3.2 0,-0.9 17.75,-17.5 18.75,-17.5 1.35,0 1.75,0.35 4.2,3.15 3.35,3.95 3.3,4.1 -6.05,11.85 -8,6.7 -10.35,8.5 -11,8.5 -0.2,0 -1.6,-1.25 -3.1,-2.8 z"
       id="path9" />
  </g>
  <g
     fill="#6f8525"
     id="g17"
     transform="translate(-89.040656,-133)">
    <path
       d="m 187.75,392.4 c -5.05,-0.35 -7.05,-0.7 -9,-1.6 -3.25,-1.45 -6.05,-3.95 -7.3,-6.4 -2.3,-4.55 -4.1,-20.8 -4.1,-37.4 0,-12.9 0.55,-19.35 2,-22.4 1.3,-2.8 5.25,-6.4 8.3,-7.5 4.25,-1.6 17.9,-2.6 35.45,-2.6 23.6,0.05 27.65,0.7 32.15,5.2 4.15,4.1 4.35,5.1 4.6,21.9 0.3,14.85 -0.1,21.8 -1.8,33.55 -0.75,5.2 -1.2,6.85 -2.4,8.75 -1.85,3.05 -5.6,5.8 -9.1,6.8 -6.7,1.85 -33.25,2.8 -48.8,1.7 z M 229,388.8 c 8.55,-0.95 11.35,-2.25 14.05,-6.6 1.5,-2.45 3.35,-16.2 4.2,-31.45 0.35,-5.95 -0.5,-21.3 -1.3,-24.4 -0.65,-2.45 -3.4,-5.5 -6.2,-6.85 -2.95,-1.4 -10.4,-1.95 -26.8,-2 -18.3,0 -31.75,1.1 -35.4,3 -2.45,1.25 -5.45,4.65 -6.05,6.95 -0.85,3.35 -1.65,18.2 -1.3,25.05 0.8,15.35 2.4,27.35 4.2,30.6 1.35,2.55 4.75,5.15 7.4,5.65 6.55,1.3 35.7,1.35 47.2,0.05 z"
       id="path10" />
    <path
       d="m 194,300.45 c -23.2,-2.2 -35.55,-12.9 -39.3,-33.95 -1.8,-10.2 -1.8,-33.15 -0.05,-40.75 2.05,-8.65 4.85,-14.15 9.85,-19.25 6.45,-6.6 13.85,-9.95 25.85,-11.75 6.9,-1 28,-1.05 34.65,0 8.25,1.25 14.75,3.9 20.35,8.35 5.2,4.1 8.65,9.3 11.1,16.75 2.8,8.3 3.25,12.3 3.3,28.9 0,13.85 -0.1,15.4 -1.15,19.9 -3.8,16.55 -12.35,25.4 -28.55,29.65 -8.2,2.15 -25.4,3.15 -36.05,2.15 z m 30.6,-4.15 c 16.8,-3.1 26,-10.75 30.1,-24.85 1.95,-6.75 2.45,-13.25 2.15,-26.2 -0.45,-19.1 -3.05,-28.6 -10.1,-36.6 C 242.4,203.7 234.3,199.4 226.6,198 c -9.5,-1.7 -29.5,-1.5 -39.4,0.45 -15.85,3.05 -25.35,11.55 -28.95,25.8 -3.3,12.85 -2.6,37.2 1.3,49 4.35,13 14.2,21.15 28.05,23.2 2,0.3 4.2,0.65 4.9,0.75 0.7,0.15 7.2,0.15 14.5,0.05 9.55,-0.1 14.45,-0.35 17.6,-0.95 z"
       id="path11" />
    <path
       d="m 180.3,246.25 c -2.65,-2.45 -3.55,-5.4 -3.55,-11.5 0,-4.5 0.2,-5.9 1.05,-7.75 3.25,-7.05 8.9,-6.65 11.65,0.75 0.75,2 1.05,3.95 1.05,6.95 0,7.65 -2.75,12.8 -6.85,12.8 -1.45,0 -2.4,-0.35 -3.35,-1.25 z"
       id="path12" />
    <path
       d="m 227.55,246.4 c -5,-2.65 -7.1,-13.2 -4.05,-20.35 3.9,-9 11.5,-5.55 12.75,5.8 1,8.55 -4.05,16.95 -8.7,14.55 z"
       id="path13" />
    <path
       d="m 215.55,188.25 c -2.05,-0.7 -4.05,-2.9 -4.05,-4.55 0,-1.25 0.65,-2.05 7.95,-9.65 6.4,-6.65 6.75,-6.05 3.25,5.3 -2.85,9.3 -3.55,10.15 -7.15,8.9 z"
       id="path14" />
    <path
       d="m 192.3,187.55 c -0.95,-1.05 -5.25,-14.85 -5.3,-16.9 0,-1.9 1.35,-1.35 4.15,1.7 1.45,1.55 4,4.3 5.75,6.1 3.2,3.3 3.95,4.7 3.35,6.5 -0.45,1.45 -2.75,2.95 -5.05,3.35 -1.6,0.25 -2.15,0.1 -2.9,-0.75 z"
       id="path15" />
    <path
       d="m 202.95,182.4 c -2.1,-1.8 -2.15,-1.95 -0.2,-10 2.1,-8.9 2.45,-9.9 3.5,-9.9 0.4,0 0.85,0.5 1,1.15 3.3,14.35 3.55,15.85 2.95,17.25 -0.3,0.8 -0.95,1.6 -1.45,1.8 -1.4,0.5 -5,0.35 -5.8,-0.3 z"
       id="path16" />
    <path
       d="m 154.05,163 c -2,-0.85 -12.15,-10.6 -12.9,-12.45 -1.35,-3.2 -0.55,-5 4.45,-10.3 5.65,-5.9 8.1,-7.25 13.1,-7.25 7.9,0 13.25,5.2 13.3,12.75 0,4.45 -1.5,7.1 -7.15,12.7 -4.55,4.45 -4.85,4.7 -7.2,4.85 -1.3,0.1 -2.95,-0.05 -3.6,-0.3 z"
       id="path17" />
  </g>
</svg>
