<?xml version="1.0" encoding="utf-8"?>
<!DOCTYPE svg PUBLIC "-//W3C//DTD SVG 1.0//EN" "http://www.w3.org/TR/2001/REC-SVG-20010904/DTD/svg10.dtd">
<svg version="1.0" xmlns="http://www.w3.org/2000/svg" width="418px" height="585px" viewBox="0 0 418 585" preserveAspectRatio="xMidYMid meet">

<g fill="#ffffff">
    <path d="M187.75 392.40 c-5.05 -0.35 -7.05 -0.70 -9 -1.60 -3.25 -1.45 -6.05 -3.95 -7.30 -6.40 -2.30 -4.55 -4.10 -20.80 -4.10 -37.40 0 -12.90 0.55 -19.35 2 -22.40 1.30 -2.80 5.25 -6.40 8.30 -7.50 4.25 -1.60 17.90 -2.60 35.45 -2.60 23.60 0.05 27.65 0.70 32.15 5.20 4.15 4.10 4.35 5.10 4.60 21.90 0.30 14.85 -0.10 21.80 -1.80 33.55 -0.75 5.20 -1.20 6.85 -2.40 8.75 -1.85 3.05 -5.60 5.80 -9.10 6.80 -6.70 1.85 -33.25 2.80 -48.80 1.70z "/>
    <path d="M194 300.45 c-23.20 -2.20 -35.55 -12.90 -39.30 -33.95 -1.80 -10.20 -1.80 -33.15 -0.05 -40.75 2.05 -8.65 4.85 -14.15 9.85 -19.25 6.45 -6.60 13.85 -9.95 25.85 -11.75 6.90 -1 28 -1.05 34.65 0 8.25 1.25 14.75 3.90 20.35 8.35 5.20 4.10 8.65 9.30 11.10 16.75 2.80 8.30 3.25 12.30 3.30 28.90 0 13.85 -0.10 15.40 -1.15 19.90 -3.80 16.55 -12.35 25.40 -28.55 29.65 -8.20 2.15 -25.40 3.15 -36.05 2.15z "/>
 
</g>
 <g fill="#f18e6f">
  <path d="M195.30 360.25 c-4.70 -1.65 -6.70 -7.35 -4.20 -11.85 1.65 -2.90 4 -4.15 7.75 -4.10 2.55 0 3.35 0.25 4.90 1.45 5.35 4.05 3.75 12.50 -2.70 14.70 -2.15 0.70 -3.35 0.65 -5.75 -0.20z"/>
  <path d="M191.50 342.75 c-0.90 -1.10 -2.20 -15.95 -1.50 -17.25 0.55 -1 5.45 -1.75 8.25 -1.20 3.05 0.55 3.05 0.60 1.90 13.60 -0.15 2.05 -0.55 3.75 -0.85 3.85 -0.30 0.05 -1.65 0.40 -3.05 0.75 -1.35 0.35 -2.85 0.70 -3.30 0.85 -0.40 0.10 -1.10 -0.15 -1.45 -0.60z"/>
 </g>
 <g fill="#76b736">
  <path d="M169 432.20 c-7.85 -0.90 -16.55 -1.90 -19.30 -2.20 -8.65 -0.90 -12.40 -2.50 -14.60 -6.25 -1 -1.70 -1.10 -2.55 -0.95 -5.75 0.45 -9.75 7.45 -16.65 17.55 -17.35 4.20 -0.30 4.20 -0.30 4.80 -4.55 0.35 -2.35 0.50 -5.75 0.35 -7.55 -0.20 -1.80 -0.55 -5.90 -0.85 -9.05 -0.35 -3.25 -0.50 -12.35 -0.40 -20.95 0.15 -15.20 0.15 -15.20 -4.85 -16.90 -2.75 -0.95 -10.05 -3.45 -16.25 -5.65 -6.20 -2.15 -17.05 -5.95 -24.15 -8.45 -7.80 -2.70 -13.65 -5.05 -14.70 -5.85 -2.35 -1.80 -4.50 -5.25 -5.75 -9.40 -0.85 -2.80 -1 -4.25 -0.75 -8.25 0.30 -5.75 1.60 -9.55 4.45 -12.80 2.75 -3.15 5.25 -3.95 11.05 -3.60 4.40 0.25 5.60 0.60 26.10 8 11.85 4.25 23.40 8.45 25.70 9.30 2.35 0.85 4.30 1.45 4.40 1.40 0.05 -0.10 -1 -1 -2.35 -2.05 -7.20 -5.50 -13.25 -14.15 -16.55 -23.65 -3.55 -10.10 -4.65 -18.75 -4.65 -35.90 0 -13.25 0.50 -18.65 2.50 -25.50 0.85 -2.95 0.65 -3.25 -3.10 -4.45 -3.85 -1.25 -6.85 -3.35 -13.45 -9.50 -3.30 -3.05 -6.25 -5.75 -6.55 -6.05 -6.75 -6 -17.45 -16.35 -18.40 -17.70 -5 -7.20 -5.60 -16.45 -1.70 -24.30 1.90 -3.75 6.75 -8.50 10.55 -10.40 7.05 -3.50 15.25 -3.55 22.10 -0.10 3.45 1.70 4.65 2.60 9.50 7.20 1.40 1.30 7.25 6.70 13 12 10.80 9.90 13.15 12.40 14.80 15.70 0.55 1.05 1.35 2.05 1.75 2.20 0.40 0.15 1.90 -0.20 3.35 -0.75 3.90 -1.55 9.10 -2.95 13.50 -3.65 3.20 -0.50 3.90 -0.75 3.70 -1.40 -2.10 -6.75 -2.25 -7.50 -1.60 -8.40 0.65 -0.85 1.05 -0.55 5.05 3.70 4.25 4.60 4.35 4.65 6.65 4.65 2.35 0 2.35 0 3.75 -5.85 2.35 -10.10 2.25 -9.75 3.45 -9.55 0.95 0.15 1.25 0.90 2.65 7.20 0.85 3.90 1.70 7.30 1.90 7.65 0.20 0.30 1.30 0.55 2.45 0.55 2 0 2.40 -0.25 6.35 -4.25 5.65 -5.70 6.80 -5.65 5 0.05 -0.55 1.80 -1 3.60 -1 3.95 0 0.40 1.05 0.75 2.90 0.95 1.55 0.20 5 0.90 7.60 1.60 7.85 2.15 7.50 2.15 9.50 -1 2.30 -3.60 30.25 -32.25 33.50 -34.30 9.30 -5.95 22.15 -4.70 30 2.95 7.25 7.15 9 17.25 4.60 27.20 -1.15 2.65 -3.95 5.70 -21.90 23.85 -8.55 8.70 -11.85 11.65 -14.30 13.05 -3.75 2.05 -3.70 1.85 -1.75 10.20 0.70 3.05 1.55 7.85 1.85 10.70 0.65 6.60 0.65 26.05 0 31.55 -1.40 11.35 -4.85 21.20 -10.25 28.75 -2.60 3.70 -10.35 11.20 -13.15 12.80 -3.85 2.20 -4.65 1.85 21.40 9.35 7.55 2.20 18.95 5.50 25.25 7.35 13.05 3.75 17.55 5.80 20.10 9.20 2.95 3.80 3.20 7.15 1 13.05 -3.15 8.60 -12.60 16 -20.35 16 -0.95 0 -3.55 -0.55 -5.75 -1.20 -9.45 -2.85 -29.60 -8.90 -30.75 -9.25 -1.25 -0.40 -1.25 -0.40 -1.15 19.90 0.05 15.05 0.25 21 0.75 23.05 0.65 2.75 0.65 2.75 5.15 2.80 7.95 0.10 13.95 3.65 16.75 9.95 4.50 9.95 0.75 16.50 -10.55 18.70 -1.50 0.25 -11 2.20 -21.20 4.30 -10.15 2.05 -19.40 3.75 -20.50 3.75 -2.45 0 -4.95 -1.45 -6 -3.45 -0.55 -1.15 -5.75 -24.40 -5.75 -25.85 0 -0.25 -21.05 0.30 -21.35 0.50 -0.05 0 -0.55 3.55 -1.15 7.80 -0.60 4.25 -1.40 9.95 -1.75 12.70 -0.80 5.35 -1.45 6.85 -3.90 8.30 -2.25 1.40 -6.10 1.25 -23.35 -0.80z m53.25 -42.95 c13.85 -1.10 15.40 -1.50 18.65 -4.45 2.10 -1.85 3.10 -4.65 4.10 -11.20 1.40 -9.35 2 -17.95 2 -28.65 0 -18.35 -1.10 -22.20 -7.10 -25.25 -2.10 -1.05 -3.50 -1.30 -11.50 -1.75 -16.55 -1 -45.30 0.25 -49.95 2.20 -2.40 1 -5.15 3.50 -6.15 5.55 -2.45 5.15 -2.70 25.35 -0.55 44.30 1.30 11.05 1.85 13.05 4.60 15.55 2.90 2.75 4.95 3.25 16.65 4.10 6.25 0.45 20.80 0.25 29.25 -0.40z m2 -92.95 c23.15 -3.95 32.75 -17.35 32.75 -45.40 0 -7.90 -0.85 -19.40 -1.80 -24.15 -3.15 -15.90 -13.25 -25.85 -29.25 -28.75 -8.40 -1.55 -27.90 -1.40 -37.50 0.25 -14.85 2.55 -24.85 10.20 -29 22.10 -2.10 6 -2.50 9.20 -2.80 20.70 -0.60 24.80 2.30 36.80 11 45.60 5.95 5.95 12.70 8.90 24.60 10.55 3.70 0.50 27.70 -0.15 32 -0.90z"/>
 </g>
 <g fill="#ce372d">
  <path d="M218.90 380.35 c-1.90 -1.45 -14.95 -16.20 -15.20 -17.20 -0.25 -0.85 0.25 -1.65 2.20 -3.65 1.35 -1.35 2.85 -2.50 3.35 -2.50 0.50 0 2.65 1.60 4.70 3.60 11.85 11.25 13.55 13.05 13.55 13.95 0 1.45 -5.60 6.40 -7.25 6.40 -0.25 0 -0.85 -0.25 -1.35 -0.60z"/>
  <path d="M190.95 379.45 c-0.85 -0.85 -1 -1.45 -0.80 -2.90 0.20 -1 0.45 -4.45 0.65 -7.65 0.20 -3.75 0.60 -6.10 0.95 -6.40 0.70 -0.55 6.65 -0.15 7.75 0.50 0.55 0.35 0.65 0.95 1.45 9.75 0.55 5.95 0.15 7 -2.80 7.40 -4.30 0.60 -6.10 0.40 -7.20 -0.70z"/>
  <path d="M194.65 359.75 c-1.60 -0.70 -1.60 -0.70 0.35 -3.85 2.15 -3.45 4.80 -8 5.70 -9.75 0.80 -1.60 1.65 -1.45 3.80 0.75 1.45 1.45 2 2.45 2.25 4.25 0.95 6.35 -5.95 11.30 -12.10 8.60z"/>
  <path d="M205.80 345.20 c-1.55 -1.50 -2.80 -2.95 -2.80 -3.20 0 -0.90 17.75 -17.50 18.75 -17.50 1.35 0 1.75 0.35 4.20 3.15 3.35 3.95 3.30 4.10 -6.05 11.85 -8 6.70 -10.35 8.50 -11 8.50 -0.20 0 -1.60 -1.25 -3.10 -2.80z"/>
 </g>
 <g fill="#6f8525">
  <path d="M187.75 392.40 c-5.05 -0.35 -7.05 -0.70 -9 -1.60 -3.25 -1.45 -6.05 -3.95 -7.30 -6.40 -2.30 -4.55 -4.10 -20.80 -4.10 -37.40 0 -12.90 0.55 -19.35 2 -22.40 1.30 -2.80 5.25 -6.40 8.30 -7.50 4.25 -1.60 17.90 -2.60 35.45 -2.60 23.60 0.05 27.65 0.70 32.15 5.20 4.15 4.10 4.35 5.10 4.60 21.90 0.30 14.85 -0.10 21.80 -1.80 33.55 -0.75 5.20 -1.20 6.85 -2.40 8.75 -1.85 3.05 -5.60 5.80 -9.10 6.80 -6.70 1.85 -33.25 2.80 -48.80 1.70z m41.25 -3.60 c8.55 -0.95 11.35 -2.25 14.05 -6.60 1.50 -2.45 3.35 -16.20 4.20 -31.45 0.35 -5.95 -0.50 -21.30 -1.30 -24.40 -0.65 -2.45 -3.40 -5.50 -6.20 -6.85 -2.95 -1.40 -10.40 -1.95 -26.80 -2 -18.30 0 -31.75 1.10 -35.40 3 -2.45 1.25 -5.45 4.65 -6.05 6.95 -0.85 3.35 -1.65 18.20 -1.30 25.05 0.80 15.35 2.40 27.35 4.20 30.60 1.35 2.55 4.75 5.15 7.40 5.65 6.55 1.30 35.70 1.35 47.20 0.05z"/>
  <path d="M194 300.45 c-23.20 -2.20 -35.55 -12.90 -39.30 -33.95 -1.80 -10.20 -1.80 -33.15 -0.05 -40.75 2.05 -8.65 4.85 -14.15 9.85 -19.25 6.45 -6.60 13.85 -9.95 25.85 -11.75 6.90 -1 28 -1.05 34.65 0 8.25 1.25 14.75 3.90 20.35 8.35 5.20 4.10 8.65 9.30 11.10 16.75 2.80 8.30 3.25 12.30 3.30 28.90 0 13.85 -0.10 15.40 -1.15 19.90 -3.80 16.55 -12.35 25.40 -28.55 29.65 -8.20 2.15 -25.40 3.15 -36.05 2.15z m30.60 -4.15 c16.80 -3.10 26 -10.75 30.10 -24.85 1.95 -6.75 2.45 -13.25 2.15 -26.20 -0.45 -19.10 -3.05 -28.60 -10.10 -36.60 -4.35 -4.95 -12.45 -9.25 -20.15 -10.65 -9.50 -1.70 -29.50 -1.50 -39.40 0.45 -15.85 3.05 -25.35 11.55 -28.95 25.80 -3.30 12.85 -2.60 37.20 1.30 49 4.35 13 14.20 21.15 28.05 23.20 2 0.30 4.20 0.65 4.90 0.75 0.70 0.15 7.20 0.15 14.50 0.05 9.55 -0.10 14.45 -0.35 17.60 -0.95z"/>
  <path d="M180.30 246.25 c-2.65 -2.45 -3.55 -5.40 -3.55 -11.50 0 -4.50 0.20 -5.90 1.05 -7.75 3.25 -7.05 8.90 -6.65 11.65 0.75 0.75 2 1.05 3.95 1.05 6.95 0 7.65 -2.75 12.80 -6.85 12.80 -1.45 0 -2.40 -0.35 -3.35 -1.25z"/>
  <path d="M227.55 246.40 c-5 -2.65 -7.10 -13.20 -4.05 -20.35 3.90 -9 11.50 -5.55 12.75 5.80 1 8.55 -4.05 16.95 -8.70 14.55z"/>
  <path d="M215.55 188.25 c-2.05 -0.70 -4.05 -2.90 -4.05 -4.55 0 -1.25 0.65 -2.05 7.95 -9.65 6.40 -6.65 6.75 -6.05 3.25 5.30 -2.85 9.30 -3.55 10.15 -7.15 8.90z"/>
  <path d="M192.30 187.55 c-0.95 -1.05 -5.25 -14.85 -5.30 -16.90 0 -1.90 1.35 -1.35 4.15 1.70 1.45 1.55 4 4.30 5.75 6.10 3.20 3.30 3.95 4.70 3.35 6.50 -0.45 1.45 -2.75 2.95 -5.05 3.35 -1.60 0.25 -2.15 0.10 -2.90 -0.75z"/>
  <path d="M202.95 182.40 c-2.10 -1.80 -2.15 -1.95 -0.20 -10 2.10 -8.90 2.45 -9.90 3.50 -9.90 0.40 0 0.85 0.50 1 1.15 3.30 14.35 3.55 15.85 2.95 17.25 -0.30 0.80 -0.95 1.60 -1.45 1.80 -1.40 0.50 -5 0.35 -5.80 -0.30z"/>
  <path d="M154.05 163 c-2 -0.85 -12.15 -10.60 -12.90 -12.45 -1.35 -3.20 -0.55 -5 4.45 -10.30 5.65 -5.90 8.10 -7.25 13.10 -7.25 7.90 0 13.25 5.20 13.30 12.75 0 4.45 -1.50 7.10 -7.15 12.70 -4.55 4.45 -4.85 4.70 -7.20 4.85 -1.30 0.10 -2.95 -0.05 -3.60 -0.30z"/>
 </g>
</svg>